<svg width="42" height="52" viewBox="0 0 42 52" fill="none" xmlns="http://www.w3.org/2000/svg">
<g clip-path="url(#clip0_27_857)">
<path d="M35.7311 30.2556C34.9596 30.6397 34.0842 31.1373 33.1695 31.7917C31.9452 32.6734 30.9797 33.5955 30.2406 34.409C30.9104 34.1184 31.6172 33.833 32.3472 33.5551C32.8484 33.3605 33.3473 33.1812 33.8324 33.0094C33.9548 34.2043 34.2597 38.4385 31.7697 42.6272C31.2384 43.519 29.0995 46.9018 24.9579 48.453C23.4057 49.029 22.0083 49.1957 20.9827 49.2134C19.9571 49.1957 18.5597 49.029 17.0121 48.453C12.8682 46.9018 10.7316 43.519 10.2003 42.6272C7.71029 38.436 8.01057 34.2043 8.13761 33.0094C8.62268 33.1812 9.11699 33.3605 9.62285 33.5551C10.3528 33.833 11.0526 34.1184 11.7294 34.409C10.9903 33.5955 10.0201 32.6734 8.79592 31.7917C7.88122 31.1373 7.01041 30.6371 6.23892 30.2556C5.83469 31.9534 5.27571 35.2553 6.11188 39.1964C6.37751 40.447 6.94804 42.9961 8.75434 45.6134C11.5862 49.7035 15.4391 51.0602 16.9289 51.4796C18.5204 51.9318 19.9294 52.0202 20.985 51.9975C22.0406 52.0202 23.4496 51.9318 25.0411 51.4796C26.531 51.0602 30.3884 49.7035 33.2157 45.6134C35.0266 42.9961 35.5925 40.4495 35.8581 39.1964C36.6943 35.2553 36.133 31.9559 35.7311 30.2556Z" fill="url(#paint0_radial_27_857)"/>
<path d="M16.0627 28.3179C13.8568 26.0341 11.0387 24.6471 8.28771 23.336C6.90873 22.6791 5.55516 21.9945 4.27319 21.138C3.1968 20.418 2.15044 19.6551 1.40667 18.5182C0.099294 16.5249 -0.0208183 14.3093 0.00228024 13.1446C2.3052 15.3501 4.35173 16.7497 5.78152 17.6138C7.31988 18.5435 8.8952 19.4176 10.5005 20.2058C11.6023 20.7464 12.7272 21.2365 13.7828 21.8757C15.3512 22.8282 16.6586 24.1974 17.5895 25.8775C19.0747 28.5529 19.1371 31.2712 19.0747 32.6052C18.5111 31.4809 17.5687 29.8767 16.0627 28.3179ZM3.36542 26.744C4.53652 28.4038 6.47679 28.9849 8.15374 29.8388C10.288 30.9251 12.2445 32.4308 13.9053 34.2523C15.633 36.1471 16.8087 38.3652 17.9175 40.7324C18.6012 42.1927 19.3912 44.1304 20.0633 46.5127C19.9132 43.9864 19.6591 41.9047 19.4443 40.4166C18.9084 36.7105 18.2339 33.0649 15.6723 30.3415C14.0831 28.6514 12.032 27.8051 10.0917 26.7112C7.22518 25.0943 4.40485 23.4168 1.77624 21.3629C1.8825 23.2526 2.28672 25.2206 3.36542 26.744ZM25.9373 28.3179C28.1432 26.0341 30.9612 24.6471 33.7122 23.336C35.0912 22.6791 36.4448 21.9945 37.7267 21.138C38.8031 20.418 39.8472 19.6576 40.5933 18.5207C41.9006 16.5274 42.0208 14.3118 41.9977 13.1472C39.6947 15.3527 37.6482 16.7523 36.2184 17.6163C34.6801 18.546 33.1047 19.4201 31.4994 20.2083C30.3976 20.749 29.2727 21.2391 28.2171 21.8782C26.6487 22.8307 25.3413 24.2 24.4105 25.88C22.9252 28.5554 22.8629 31.2738 22.9252 32.6077C23.4888 31.4809 24.4313 29.8767 25.9373 28.3179ZM40.2214 21.3629C37.5928 23.4168 34.7724 25.0943 31.9059 26.7112C29.968 27.8051 27.9168 28.6514 26.3253 30.3415C23.7614 33.0675 23.0892 36.7105 22.5533 40.4166C22.3385 41.9047 22.0844 43.9864 21.9343 46.5127C22.6065 44.1304 23.3987 42.1927 24.0802 40.7324C25.1889 38.3627 26.3646 36.1471 28.0924 34.2523C29.7555 32.4283 31.7096 30.9251 33.8439 29.8388C35.5208 28.9849 37.4611 28.4038 38.6322 26.744C39.7109 25.2206 40.1151 23.2526 40.2214 21.3629ZM20.3497 28.6842C20.8602 26.1554 20.687 23.4016 19.6845 20.9864C19.5644 20.6833 19.4235 20.3902 19.2826 20.0997C19.1371 19.8193 18.9615 19.506 18.846 19.2963C18.7282 19.0715 18.7028 18.9426 18.7121 18.8719C18.7144 18.7885 18.779 18.6117 18.913 18.3995C19.0447 18.1923 19.241 17.9194 19.4073 17.6491C19.5783 17.3763 19.7469 17.0832 19.8924 16.7674C20.195 16.1333 20.359 15.3855 20.3867 14.6908C20.4537 13.2811 20.0772 12.0027 19.7746 10.8355C19.6221 10.2469 19.472 9.67847 19.3888 9.11256C19.3011 8.54666 19.2757 7.96307 19.2757 7.3719C19.278 6.78074 19.3219 6.18199 19.3865 5.58072C19.4443 4.97692 19.5621 4.38828 19.599 3.72637C19.6268 3.24131 19.6591 2.60972 19.5436 1.81392C19.4235 0.982748 19.144 -0.0202154 19.0008 -4.59442e-06C18.9916 0.00252176 18.9823 0.00757448 18.9777 0.0126272C19.0724 1.23791 19.0932 2.46572 18.8969 3.63037C18.7952 4.19627 18.6335 4.80513 18.525 5.42408C18.4095 6.04304 18.3148 6.6721 18.2616 7.3138C18.2085 7.95549 18.2108 8.61235 18.2732 9.27172C18.3356 9.9311 18.4603 10.5627 18.5896 11.1715C18.8599 12.3817 19.1117 13.5261 19.047 14.6023C19.01 15.1405 18.8969 15.6179 18.6705 16.0777C18.5573 16.3102 18.4233 16.5426 18.2709 16.775L17.7627 17.5178C17.5802 17.8083 17.3516 18.1898 17.3031 18.7279C17.2545 19.2811 17.4578 19.7536 17.6172 20.0593L18.0468 20.8475C18.1692 21.1001 18.294 21.3553 18.3979 21.618C19.1325 23.3865 19.405 25.3722 19.2687 27.3402C19.2248 27.9617 19.6014 28.5251 20.1626 28.6438L20.3497 28.6842ZM23.438 22.0096C23.4496 21.5296 23.5189 21.0294 23.6344 20.5949C23.7568 20.1527 23.9647 19.6601 24.1725 19.1776C25.0087 17.2171 26.0389 15.383 27.076 13.4781C27.5888 12.5307 28.1062 11.5808 28.5982 10.6006C28.8431 10.1079 29.081 9.60773 29.2958 9.0873C29.506 8.5694 29.6931 8.05149 29.8733 7.52349C30.6124 5.42661 30.9727 3.14278 30.9219 0.919589C30.8919 0.922116 30.8434 0.932221 30.788 0.952432C30.1458 1.20507 30.2105 2.59709 29.9426 4.08511C29.7693 5.04513 29.5106 5.7424 28.9562 7.11927C28.5543 8.11213 28.1247 9.06204 27.6188 9.98921C27.113 10.9189 26.5725 11.8436 26.032 12.7707C25.4938 13.6979 24.9371 14.6099 24.4082 15.5725C23.8815 16.5299 23.3895 17.5152 22.9322 18.5182C22.7058 19.026 22.4771 19.5287 22.2923 20.1351C22.1168 20.7515 22.0452 21.3528 22.0267 21.9717C22.0105 22.6336 22.0775 23.2854 22.2092 23.917C22.387 24.776 23.2417 25.2408 23.9831 24.8998C23.6205 23.9701 23.4149 22.9823 23.438 22.0096ZM21.2529 15.0318C21.4261 14.7489 21.477 14.476 21.5001 14.332C21.5901 13.7863 21.5809 13.2432 21.5878 12.9274C21.6086 11.9295 21.8211 11.1892 21.9597 10.7143C22.059 10.3808 22.1791 10.0701 22.3316 9.79721C22.4817 9.51678 22.6619 9.31467 22.8675 9.09741C23.0707 8.88772 23.2948 8.68814 23.5443 8.58455C23.796 8.4835 24.0524 8.52392 24.2511 8.6755C24.6692 8.98625 24.8632 9.73657 24.884 10.3783C24.8978 10.7117 24.8355 11.0478 24.7662 11.3762C24.6923 11.7046 24.6368 12.0406 24.5352 12.369C24.3319 13.0183 24.0201 13.6726 23.5835 13.9455C23.2347 14.1628 22.7728 13.9783 22.6342 13.852C22.5349 13.7585 22.4355 13.6373 22.4355 13.6373C22.3847 13.5741 22.3732 13.5539 22.3154 13.4857C22.1884 13.3291 22.126 13.2507 22.1029 13.2608C22.0336 13.2912 22.0313 14.1173 22.5487 14.5796C23.0453 15.0217 23.6852 14.8373 23.8792 14.7691C24.3296 14.6124 24.6715 14.2916 24.9371 13.948C25.2051 13.6019 25.406 13.2356 25.5769 12.8415C25.8172 12.2958 25.9003 11.8208 25.9373 11.5985C25.9973 11.2246 26.1082 10.5071 25.898 9.65826C25.8333 9.39552 25.7502 9.0772 25.5261 8.72603C25.2466 8.28897 24.9048 8.04391 24.7015 7.92518C24.489 7.79886 24.0016 7.54117 23.3641 7.61696C22.916 7.67001 22.4956 7.84939 22.1445 8.12223C21.7957 8.39255 21.5162 8.80435 21.3314 9.21109C21.1443 9.62289 21.0381 10.0574 20.9826 10.4818C20.9203 10.9063 20.9203 11.3282 20.9295 11.7223C20.9457 12.4297 20.9803 12.3488 20.9803 12.9097C20.9803 13.1876 20.985 14.0971 21.0242 14.9232C21.0288 15.0167 21.0358 15.148 21.045 15.3072C21.1004 15.244 21.179 15.1531 21.2529 15.0318Z" fill="url(#paint1_radial_27_857)"/>
</g>
<defs>
<radialGradient id="paint0_radial_27_857" cx="0" cy="0" r="1" gradientUnits="userSpaceOnUse" gradientTransform="translate(20.9834 41.1276) scale(12.9052 14.1148)">
<stop stop-color="#AF7C37"/>
<stop offset="1" stop-color="#FED272"/>
</radialGradient>
<radialGradient id="paint1_radial_27_857" cx="0" cy="0" r="1" gradientUnits="userSpaceOnUse" gradientTransform="translate(20.9995 23.2567) scale(21.132 23.1127)">
<stop stop-color="#D59E4B"/>
<stop offset="1" stop-color="#FED272"/>
</radialGradient>
<clipPath id="clip0_27_857">
<rect width="42" height="52" fill="white"/>
</clipPath>
</defs>
</svg>
